<?xml version="1.0" standalone="no"?>
<!DOCTYPE svg PUBLIC "-//W3C//DTD SVG 20010904//EN"
 "http://www.w3.org/TR/2001/REC-SVG-20010904/DTD/svg10.dtd">
<svg version="1.0" xmlns="http://www.w3.org/2000/svg"
 width="128.000000pt" height="128.000000pt" viewBox="0 0 128.000000 128.000000"
 preserveAspectRatio="xMidYMid meet">

<g transform="translate(0.000000,128.000000) scale(0.100000,-0.100000)"
fill="currentColor" stroke="none">
<path d="M545 1217 c-132 -44 -219 -135 -254 -265 -8 -29 -17 -42 -30 -42 -55
0 -126 -34 -177 -84 -112 -113 -113 -279 -1 -390 73 -73 124 -87 291 -84 110
3 130 6 140 21 8 12 8 22 0 35 -9 14 -32 18 -155 22 -164 6 -198 18 -247 93
-22 34 -27 52 -27 106 0 116 68 188 187 198 73 7 88 15 88 52 0 106 89 225
190 255 112 33 206 11 284 -67 53 -53 86 -126 86 -187 0 -38 15 -46 88 -53
119 -10 187 -82 187 -198 0 -54 -5 -72 -27 -106 -49 -75 -83 -87 -247 -93
-123 -4 -146 -8 -155 -22 -8 -13 -8 -23 0 -35 10 -16 29 -18 160 -18 142 0
151 1 199 27 172 91 206 308 69 445 -49 49 -120 83 -175 83 -13 0 -22 13 -30
42 -42 159 -174 267 -333 275 -41 1 -88 -3 -111 -10z"/>
<path d="M612 698 c-9 -9 -12 -83 -12 -272 l0 -260 -53 52 c-29 29 -59 52 -68
52 -19 0 -39 -20 -39 -40 0 -20 180 -200 200 -200 20 0 200 181 200 201 0 19
-20 39 -39 39 -9 0 -39 -23 -68 -52 l-53 -52 0 260 c0 267 -2 284 -40 284 -9
0 -21 -5 -28 -12z"/>
</g>
</svg>
