<?xml version="1.0" standalone="no"?>
<!DOCTYPE svg PUBLIC "-//W3C//DTD SVG 20010904//EN"
 "http://www.w3.org/TR/2001/REC-SVG-20010904/DTD/svg10.dtd">
<svg version="1.0" xmlns="http://www.w3.org/2000/svg"
 width="512.000000pt" height="512.000000pt" viewBox="0 0 512.000000 512.000000"
 preserveAspectRatio="xMidYMid meet">

<g transform="translate(0.000000,512.000000) scale(0.100000,-0.100000)"
fill="currentColor" stroke="none">
<path d="M2370 4891 c-109 -35 -106 -30 -145 -231 -70 -356 -224 -862 -425
-1390 -135 -353 -139 -365 -159 -467 -11 -54 -24 -179 -31 -278 -23 -376 -72
-600 -175 -805 -24 -47 -59 -107 -78 -134 l-35 -48 48 -137 c26 -75 89 -256
140 -403 51 -148 97 -268 101 -268 4 0 32 14 61 31 65 39 143 75 408 190 235
103 297 141 357 222 78 106 73 23 73 1314 0 1300 8 1184 -82 1142 -62 -29
-105 -77 -114 -126 -87 -507 -186 -904 -247 -994 -25 -37 -54 -44 -70 -18 -8
13 -4 32 16 76 55 123 138 455 197 793 17 96 38 192 47 213 27 62 110 123 208
152 l40 12 3 567 c2 555 2 566 -18 586 -24 24 -48 24 -120 1z"/>
<path d="M2642 4894 l-22 -15 0 -573 0 -572 50 -13 c67 -17 151 -74 183 -123
14 -23 30 -64 36 -92 5 -28 21 -116 36 -196 59 -326 135 -625 192 -753 24 -54
25 -59 10 -74 -30 -30 -61 -4 -96 81 -54 129 -145 510 -201 841 -17 98 -28
138 -46 162 -27 35 -126 88 -149 79 -14 -5 -15 -136 -13 -1183 l3 -1178 24
-48 c60 -121 140 -177 411 -292 74 -31 209 -93 298 -137 90 -44 165 -78 166
-76 5 6 276 793 276 801 0 4 -17 34 -39 65 -78 116 -129 232 -171 397 -39 151
-57 281 -74 540 -19 267 -34 332 -141 610 -229 592 -390 1107 -471 1504 -25
125 -41 182 -55 197 -17 18 -142 64 -174 64 -6 0 -21 -7 -33 -16z"/>
<path d="M747 1633 c-197 -75 -356 -139 -355 -143 2 -4 104 -298 227 -654 124
-355 228 -645 232 -644 3 2 169 64 368 138 198 74 361 140 361 145 0 6 -100
299 -222 652 -164 474 -227 642 -238 642 -8 -1 -176 -62 -373 -136z"/>
<path d="M3772 1133 c-122 -351 -223 -644 -224 -652 -2 -9 106 -55 362 -151
201 -75 368 -134 372 -131 3 3 99 274 213 601 114 327 215 618 225 646 l18 52
-353 132 c-194 72 -362 134 -372 136 -18 5 -41 -58 -241 -633z"/>
</g>
</svg>
