<?xml version="1.0" standalone="no"?>
<!DOCTYPE svg PUBLIC "-//W3C//DTD SVG 20010904//EN"
 "http://www.w3.org/TR/2001/REC-SVG-20010904/DTD/svg10.dtd">
<svg version="1.0" xmlns="http://www.w3.org/2000/svg"
 width="512.000000pt" height="512.000000pt" viewBox="0 0 512.000000 512.000000"
 preserveAspectRatio="xMidYMid meet">

<g transform="translate(0.000000,512.000000) scale(0.100000,-0.100000)"
fill="currentColor" stroke="none">
<path d="M2315 5109 c-597 -61 -1141 -318 -1563 -739 -1002 -1000 -1002 -2620
0 -3620 406 -405 901 -648 1493 -732 119 -17 512 -16 635 1 580 80 1089 330
1489 732 464 467 723 1061 748 1719 26 711 -242 1393 -749 1900 -393 394 -891
643 -1453 726 -122 18 -477 26 -600 13z m390 -1280 c469 -79 674 -474 444
-855 -57 -94 -134 -179 -255 -280 -67 -56 -129 -118 -149 -148 -43 -64 -65
-148 -65 -246 0 -138 -49 -184 -194 -184 -101 0 -140 18 -167 77 -26 59 -26
235 0 339 39 153 100 236 276 378 172 139 214 196 223 306 12 158 -118 254
-330 242 -135 -7 -197 -43 -283 -164 -73 -101 -153 -119 -254 -56 -128 79
-109 268 42 416 159 156 429 223 712 175z m-111 -1974 c88 -42 145 -131 146
-224 0 -83 -19 -130 -75 -188 -104 -107 -260 -108 -362 -1 -130 136 -77 360
102 426 43 16 143 9 189 -13z"/>
</g>
</svg>
